<svg width="1920" height="482" viewBox="0 0 1920 482" fill="none" xmlns="http://www.w3.org/2000/svg">
  <path d="M1.02455 25.649C30.0534 28.4296 77.1825 44.0013 140.363 38.9961C203.543 33.9909 235.987 1.17921 304.29 1.62411C372.593 2.06902 399.915 39.2408 468.218 41.1316C536.521 43.0225 563.842 9.69913 632.145 10.7002C700.448 11.7012 727.769 44.8244 796.073 45.9366C864.376 47.0489 891.697 16.2615 960 16.039C1028.3 15.8166 1055.62 43.3117 1123.93 44.8688C1192.23 46.426 1219.55 23.291 1287.85 23.5134C1356.16 23.7359 1383.48 46.2703 1451.78 45.9366C1520.09 45.6029 1547.41 22.8016 1615.71 21.9118C1684.01 21.022 1716.46 40.887 1779.64 41.6655C1842.82 42.4441 1889.95 28.9858 1918.98 25.649" stroke="url(#paint0_linear_222_185)" stroke-width="2" stroke-linecap="round"/>
  <path d="M1.02455 380.683C30.0534 383.464 77.1825 399.035 140.363 394.03C203.543 389.025 235.987 356.213 304.29 356.658C372.593 357.103 399.915 394.275 468.218 396.166C536.521 398.057 563.842 364.733 632.145 365.734C700.448 366.735 727.769 399.859 796.073 400.971C864.376 402.083 891.697 371.296 960 371.073C1028.3 370.851 1055.62 398.346 1123.93 399.903C1192.23 401.46 1219.55 378.325 1287.85 378.548C1356.16 378.77 1383.48 401.304 1451.78 400.971C1520.09 400.637 1547.41 377.836 1615.71 376.946C1684.01 376.056 1716.46 395.921 1779.64 396.7C1842.82 397.478 1889.95 384.02 1918.98 380.683" stroke="url(#paint1_linear_222_185)" stroke-width="2" stroke-linecap="round"/>
  <path d="M1.02455 361.997C30.0534 364.778 77.1825 380.349 140.363 375.344C203.543 370.339 235.987 337.527 304.29 337.972C372.593 338.417 399.915 375.589 468.218 377.48C536.521 379.37 563.842 346.047 632.145 347.048C700.448 348.049 727.769 381.172 796.073 382.285C864.376 383.397 891.697 352.609 960 352.387C1028.3 352.164 1055.62 379.66 1123.93 381.217C1192.23 382.774 1219.55 359.639 1287.85 359.861C1356.16 360.084 1383.48 382.618 1451.78 382.285C1520.09 381.951 1547.41 359.149 1615.71 358.26C1684.01 357.37 1716.46 377.235 1779.64 378.013C1842.82 378.792 1889.95 365.334 1918.98 361.997" stroke="url(#paint2_linear_222_185)" stroke-width="2" stroke-linecap="round"/>
  <path d="M1.02455 343.311C30.0534 346.092 77.1825 361.663 140.363 356.658C203.543 351.653 235.987 318.841 304.29 319.286C372.593 319.731 399.915 356.903 468.218 358.794C536.521 360.685 563.842 327.361 632.145 328.362C700.448 329.363 727.769 362.486 796.073 363.599C864.376 364.711 891.697 333.924 960 333.701C1028.3 333.479 1055.62 360.974 1123.93 362.531C1192.23 364.088 1219.55 340.953 1287.85 341.176C1356.16 341.398 1383.48 363.932 1451.78 363.599C1520.09 363.265 1547.41 340.464 1615.71 339.574C1684.01 338.684 1716.46 358.549 1779.64 359.328C1842.82 360.106 1889.95 346.648 1918.98 343.311" stroke="url(#paint3_linear_222_185)" stroke-width="2" stroke-linecap="round"/>
  <path d="M1.02455 324.625C30.0534 327.405 77.1825 342.977 140.363 337.972C203.543 332.967 235.987 300.155 304.29 300.6C372.593 301.045 399.915 338.217 468.218 340.107C536.521 341.998 563.842 308.675 632.145 309.676C700.448 310.677 727.769 343.8 796.073 344.912C864.376 346.025 891.697 315.237 960 315.015C1028.3 314.792 1055.62 342.288 1123.93 343.845C1192.23 345.402 1219.55 322.267 1287.85 322.489C1356.16 322.712 1383.48 345.246 1451.78 344.912C1520.09 344.579 1547.41 321.777 1615.71 320.888C1684.01 319.998 1716.46 339.863 1779.64 340.641C1842.82 341.42 1889.95 327.962 1918.98 324.625" stroke="url(#paint4_linear_222_185)" stroke-width="2" stroke-linecap="round"/>
  <path d="M1.02455 305.939C30.0534 308.72 77.1825 324.291 140.363 319.286C203.543 314.281 235.987 281.469 304.29 281.914C372.593 282.359 399.915 319.531 468.218 321.422C536.521 323.313 563.842 289.989 632.145 290.99C700.448 291.991 727.769 325.114 796.073 326.227C864.376 327.339 891.697 296.552 960 296.329C1028.3 296.107 1055.62 323.602 1123.93 325.159C1192.23 326.716 1219.55 303.581 1287.85 303.803C1356.16 304.026 1383.48 326.56 1451.78 326.227C1520.09 325.893 1547.41 303.092 1615.71 302.202C1684.01 301.312 1716.46 321.177 1779.64 321.956C1842.82 322.734 1889.95 309.276 1918.98 305.939" stroke="url(#paint5_linear_222_185)" stroke-width="2" stroke-linecap="round"/>
  <path d="M1.02455 287.253C30.0534 290.034 77.1825 305.605 140.363 300.6C203.543 295.595 235.987 262.783 304.29 263.228C372.593 263.673 399.915 300.845 468.218 302.736C536.521 304.626 563.842 271.303 632.145 272.304C700.448 273.305 727.769 306.428 796.073 307.541C864.376 308.653 891.697 277.865 960 277.643C1028.3 277.421 1055.62 304.916 1123.93 306.473C1192.23 308.03 1219.55 284.895 1287.85 285.117C1356.16 285.34 1383.48 307.874 1451.78 307.541C1520.09 307.207 1547.41 284.406 1615.71 283.516C1684.01 282.626 1716.46 302.491 1779.64 303.27C1842.82 304.048 1889.95 290.59 1918.98 287.253" stroke="url(#paint6_linear_222_185)" stroke-width="2" stroke-linecap="round"/>
  <path d="M1.02455 268.567C30.0534 271.348 77.1825 286.919 140.363 281.914C203.543 276.909 235.987 244.097 304.29 244.542C372.593 244.987 399.915 282.159 468.218 284.05C536.521 285.94 563.842 252.617 632.145 253.618C700.448 254.619 727.769 287.742 796.073 288.855C864.376 289.967 891.697 259.179 960 258.957C1028.3 258.735 1055.62 286.23 1123.93 287.787C1192.23 289.344 1219.55 266.209 1287.85 266.431C1356.16 266.654 1383.48 289.188 1451.78 288.855C1520.09 288.521 1547.41 265.72 1615.71 264.83C1684.01 263.94 1716.46 283.805 1779.64 284.584C1842.82 285.362 1889.95 271.904 1918.98 268.567" stroke="url(#paint7_linear_222_185)" stroke-width="2" stroke-linecap="round"/>
  <path d="M1.02455 249.881C30.0534 252.662 77.1825 268.233 140.363 263.228C203.543 258.223 235.987 225.411 304.29 225.856C372.593 226.301 399.915 263.473 468.218 265.364C536.521 267.254 563.842 233.931 632.145 234.932C700.448 235.933 727.769 269.056 796.073 270.169C864.376 271.281 891.697 240.493 960 240.271C1028.3 240.049 1055.62 267.544 1123.93 269.101C1192.23 270.658 1219.55 247.523 1287.85 247.745C1356.16 247.968 1383.48 270.502 1451.78 270.169C1520.09 269.835 1547.41 247.034 1615.71 246.144C1684.01 245.254 1716.46 265.119 1779.64 265.897C1842.82 266.676 1889.95 253.218 1918.98 249.881" stroke="url(#paint8_linear_222_185)" stroke-width="2" stroke-linecap="round"/>
  <path d="M1.02455 231.195C30.0534 233.976 77.1825 249.547 140.363 244.542C203.543 239.537 235.987 206.725 304.29 207.17C372.593 207.615 399.915 244.787 468.218 246.678C536.521 248.568 563.842 215.245 632.145 216.246C700.448 217.247 727.769 250.37 796.073 251.483C864.376 252.595 891.697 221.807 960 221.585C1028.3 221.362 1055.62 248.858 1123.93 250.415C1192.23 251.972 1219.55 228.837 1287.85 229.059C1356.16 229.282 1383.48 251.816 1451.78 251.483C1520.09 251.149 1547.41 228.347 1615.71 227.458C1684.01 226.568 1716.46 246.433 1779.64 247.211C1842.82 247.99 1889.95 234.532 1918.98 231.195" stroke="url(#paint9_linear_222_185)" stroke-width="2" stroke-linecap="round"/>
  <path d="M1.02455 212.509C30.0534 215.289 77.1825 230.861 140.363 225.856C203.543 220.851 235.987 188.039 304.29 188.484C372.593 188.929 399.915 226.101 468.218 227.992C536.521 229.882 563.842 196.559 632.145 197.56C700.448 198.561 727.769 231.684 796.073 232.796C864.376 233.909 891.697 203.121 960 202.899C1028.3 202.676 1055.62 230.172 1123.93 231.729C1192.23 233.286 1219.55 210.151 1287.85 210.373C1356.16 210.596 1383.48 233.13 1451.78 232.796C1520.09 232.463 1547.41 209.661 1615.71 208.772C1684.01 207.882 1716.46 227.747 1779.64 228.525C1842.82 229.304 1889.95 215.846 1918.98 212.509" stroke="url(#paint10_linear_222_185)" stroke-width="2" stroke-linecap="round"/>
  <path d="M1.02455 193.823C30.0534 196.604 77.1825 212.175 140.363 207.17C203.543 202.165 235.987 169.353 304.29 169.798C372.593 170.243 399.915 207.415 468.218 209.306C536.521 211.197 563.842 177.873 632.145 178.874C700.448 179.875 727.769 212.998 796.073 214.111C864.376 215.223 891.697 184.436 960 184.213C1028.3 183.991 1055.62 211.486 1123.93 213.043C1192.23 214.6 1219.55 191.465 1287.85 191.687C1356.16 191.91 1383.48 214.444 1451.78 214.111C1520.09 213.777 1547.41 190.976 1615.71 190.086C1684.01 189.196 1716.46 209.061 1779.64 209.84C1842.82 210.618 1889.95 197.16 1918.98 193.823" stroke="url(#paint11_linear_222_185)" stroke-width="2" stroke-linecap="round"/>
  <path d="M1.02455 175.137C30.0534 177.918 77.1825 193.489 140.363 188.484C203.543 183.479 235.987 150.667 304.29 151.112C372.593 151.557 399.915 188.729 468.218 190.62C536.521 192.511 563.842 159.187 632.145 160.188C700.448 161.189 727.769 194.312 796.073 195.425C864.376 196.537 891.697 165.75 960 165.527C1028.3 165.305 1055.62 192.8 1123.93 194.357C1192.23 195.914 1219.55 172.779 1287.85 173.001C1356.16 173.224 1383.48 195.758 1451.78 195.425C1520.09 195.091 1547.41 172.29 1615.71 171.4C1684.01 170.51 1716.46 190.375 1779.64 191.154C1842.82 191.932 1889.95 178.474 1918.98 175.137" stroke="url(#paint12_linear_222_185)" stroke-width="2" stroke-linecap="round"/>
  <path d="M1.02455 156.451C30.0534 159.232 77.1825 174.803 140.363 169.798C203.543 164.793 235.987 131.981 304.29 132.426C372.593 132.871 399.915 170.043 468.218 171.934C536.521 173.824 563.842 140.501 632.145 141.502C700.448 142.503 727.769 175.626 796.073 176.739C864.376 177.851 891.697 147.063 960 146.841C1028.3 146.619 1055.62 174.114 1123.93 175.671C1192.23 177.228 1219.55 154.093 1287.85 154.315C1356.16 154.538 1383.48 177.072 1451.78 176.739C1520.09 176.405 1547.41 153.604 1615.71 152.714C1684.01 151.824 1716.46 171.689 1779.64 172.468C1842.82 173.246 1889.95 159.788 1918.98 156.451" stroke="url(#paint13_linear_222_185)" stroke-width="2" stroke-linecap="round"/>
  <path d="M1.02455 137.765C30.0534 140.546 77.1825 156.117 140.363 151.112C203.543 146.107 235.987 113.295 304.29 113.74C372.593 114.185 399.915 151.357 468.218 153.248C536.521 155.138 563.842 121.815 632.145 122.816C700.448 123.817 727.769 156.94 796.073 158.053C864.376 159.165 891.697 128.377 960 128.155C1028.3 127.933 1055.62 155.428 1123.93 156.985C1192.23 158.542 1219.55 135.407 1287.85 135.629C1356.16 135.852 1383.48 158.386 1451.78 158.053C1520.09 157.719 1547.41 134.918 1615.71 134.028C1684.01 133.138 1716.46 153.003 1779.64 153.782C1842.82 154.56 1889.95 141.102 1918.98 137.765" stroke="url(#paint14_linear_222_185)" stroke-width="2" stroke-linecap="round"/>
  <path d="M1.02455 119.079C30.0534 121.86 77.1825 137.431 140.363 132.426C203.543 127.421 235.987 94.6091 304.29 95.054C372.593 95.4989 399.915 132.671 468.218 134.562C536.521 136.452 563.842 103.129 632.145 104.13C700.448 105.131 727.769 138.254 796.073 139.367C864.376 140.479 891.697 109.691 960 109.469C1028.3 109.247 1055.62 136.742 1123.93 138.299C1192.23 139.856 1219.55 116.721 1287.85 116.943C1356.16 117.166 1383.48 139.7 1451.78 139.367C1520.09 139.033 1547.41 116.232 1615.71 115.342C1684.01 114.452 1716.46 134.317 1779.64 135.095C1842.82 135.874 1889.95 122.416 1918.98 119.079" stroke="url(#paint15_linear_222_185)" stroke-width="2" stroke-linecap="round"/>
  <path d="M1.02455 100.393C30.0534 103.174 77.1825 118.745 140.363 113.74C203.543 108.735 235.987 75.9233 304.29 76.3683C372.593 76.8132 399.915 113.985 468.218 115.876C536.521 117.767 563.842 84.4433 632.145 85.4443C700.448 86.4453 727.769 119.568 796.073 120.681C864.376 121.793 891.697 91.0056 960 90.7832C1028.3 90.5607 1055.62 118.056 1123.93 119.613C1192.23 121.17 1219.55 98.0351 1287.85 98.2576C1356.16 98.48 1383.48 121.014 1451.78 120.681C1520.09 120.347 1547.41 97.5457 1615.71 96.6559C1684.01 95.7661 1716.46 115.631 1779.64 116.41C1842.82 117.188 1889.95 103.73 1918.98 100.393" stroke="url(#paint16_linear_222_185)" stroke-width="2" stroke-linecap="round"/>
  <path d="M1.02455 81.7068C30.0534 84.4875 77.1825 100.059 140.363 95.054C203.543 90.0488 235.987 57.2371 304.29 57.682C372.593 58.1269 399.915 95.2987 468.218 97.1895C536.521 99.0804 563.842 65.757 632.145 66.758C700.448 67.7591 727.769 100.882 796.073 101.994C864.376 103.107 891.697 72.3193 960 72.0969C1028.3 71.8744 1055.62 99.3695 1123.93 100.927C1192.23 102.484 1219.55 79.3488 1287.85 79.5713C1356.16 79.7937 1383.48 102.328 1451.78 101.994C1520.09 101.661 1547.41 78.8594 1615.71 77.9696C1684.01 77.0798 1716.46 96.9448 1779.64 97.7234C1842.82 98.502 1889.95 85.0436 1918.98 81.7068" stroke="url(#paint17_linear_222_185)" stroke-width="2" stroke-linecap="round"/>
  <path d="M1.02455 63.021C30.0534 65.8017 77.1825 81.3734 140.363 76.3682C203.543 71.363 235.987 38.5513 304.29 38.9962C372.593 39.4411 399.915 76.6129 468.218 78.5037C536.521 80.3946 563.842 47.0712 632.145 48.0722C700.448 49.0733 727.769 82.1964 796.073 83.3087C864.376 84.421 891.697 53.6335 960 53.4111C1028.3 53.1886 1055.62 80.6838 1123.93 82.2409C1192.23 83.7981 1219.55 60.663 1287.85 60.8855C1356.16 61.1079 1383.48 83.6424 1451.78 83.3087C1520.09 82.975 1547.41 60.1736 1615.71 59.2838C1684.01 58.394 1716.46 78.259 1779.64 79.0376C1842.82 79.8162 1889.95 66.3578 1918.98 63.021" stroke="url(#paint18_linear_222_185)" stroke-width="2" stroke-linecap="round"/>
  <path d="M1.02455 44.335C30.0534 47.1157 77.1825 62.6873 140.363 57.6821C203.543 52.677 235.987 19.8652 304.29 20.3101C372.593 20.7551 399.915 57.9268 468.218 59.8177C536.521 61.7085 563.842 28.3852 632.145 29.3862C700.448 30.3872 727.769 63.5104 796.073 64.6227C864.376 65.7349 891.697 34.9475 960 34.7251C1028.3 34.5026 1055.62 61.9977 1123.93 63.5549C1192.23 65.112 1219.55 41.977 1287.85 42.1995C1356.16 42.4219 1383.48 64.9563 1451.78 64.6227C1520.09 64.289 1547.41 41.4876 1615.71 40.5978C1684.01 39.708 1716.46 59.573 1779.64 60.3516C1842.82 61.1302 1889.95 47.6718 1918.98 44.335" stroke="url(#paint19_linear_222_185)" stroke-width="2" stroke-linecap="round"/>
  <defs>
  <linearGradient id="paint0_linear_222_185" x1="960" y1="1.61963" x2="960" y2="45.966" gradientUnits="userSpaceOnUse">
  <stop stop-color="white" stop-opacity="0.16"/>
  <stop offset="0.0001" stop-color="white" stop-opacity="0.12"/>
  <stop offset="1" stop-color="white" stop-opacity="0.04"/>
  </linearGradient>
  <linearGradient id="paint1_linear_222_185" x1="960" y1="356.654" x2="960" y2="401" gradientUnits="userSpaceOnUse">
  <stop stop-color="white" stop-opacity="0.16"/>
  <stop offset="0.0001" stop-color="white" stop-opacity="0.12"/>
  <stop offset="1" stop-color="white" stop-opacity="0.04"/>
  </linearGradient>
  <linearGradient id="paint2_linear_222_185" x1="960" y1="337.968" x2="960" y2="382.314" gradientUnits="userSpaceOnUse">
  <stop stop-color="white" stop-opacity="0.16"/>
  <stop offset="0.0001" stop-color="white" stop-opacity="0.12"/>
  <stop offset="1" stop-color="white" stop-opacity="0.04"/>
  </linearGradient>
  <linearGradient id="paint3_linear_222_185" x1="960" y1="319.282" x2="960" y2="363.628" gradientUnits="userSpaceOnUse">
  <stop stop-color="white" stop-opacity="0.16"/>
  <stop offset="0.0001" stop-color="white" stop-opacity="0.12"/>
  <stop offset="1" stop-color="white" stop-opacity="0.04"/>
  </linearGradient>
  <linearGradient id="paint4_linear_222_185" x1="960" y1="300.595" x2="960" y2="344.942" gradientUnits="userSpaceOnUse">
  <stop stop-color="white" stop-opacity="0.16"/>
  <stop offset="0.0001" stop-color="white" stop-opacity="0.12"/>
  <stop offset="1" stop-color="white" stop-opacity="0.04"/>
  </linearGradient>
  <linearGradient id="paint5_linear_222_185" x1="960" y1="281.91" x2="960" y2="326.256" gradientUnits="userSpaceOnUse">
  <stop stop-color="white" stop-opacity="0.16"/>
  <stop offset="0.0001" stop-color="white" stop-opacity="0.12"/>
  <stop offset="1" stop-color="white" stop-opacity="0.04"/>
  </linearGradient>
  <linearGradient id="paint6_linear_222_185" x1="960" y1="263.224" x2="960" y2="307.57" gradientUnits="userSpaceOnUse">
  <stop stop-color="white" stop-opacity="0.16"/>
  <stop offset="0.0001" stop-color="white" stop-opacity="0.12"/>
  <stop offset="1" stop-color="white" stop-opacity="0.04"/>
  </linearGradient>
  <linearGradient id="paint7_linear_222_185" x1="960" y1="244.538" x2="960" y2="288.884" gradientUnits="userSpaceOnUse">
  <stop stop-color="white" stop-opacity="0.16"/>
  <stop offset="0.0001" stop-color="white" stop-opacity="0.12"/>
  <stop offset="1" stop-color="white" stop-opacity="0.04"/>
  </linearGradient>
  <linearGradient id="paint8_linear_222_185" x1="960" y1="225.852" x2="960" y2="270.198" gradientUnits="userSpaceOnUse">
  <stop stop-color="white" stop-opacity="0.16"/>
  <stop offset="0.0001" stop-color="white" stop-opacity="0.12"/>
  <stop offset="1" stop-color="white" stop-opacity="0.04"/>
  </linearGradient>
  <linearGradient id="paint9_linear_222_185" x1="960" y1="207.166" x2="960" y2="251.512" gradientUnits="userSpaceOnUse">
  <stop stop-color="white" stop-opacity="0.16"/>
  <stop offset="0.0001" stop-color="white" stop-opacity="0.12"/>
  <stop offset="1" stop-color="white" stop-opacity="0.04"/>
  </linearGradient>
  <linearGradient id="paint10_linear_222_185" x1="960" y1="188.479" x2="960" y2="232.826" gradientUnits="userSpaceOnUse">
  <stop stop-color="white" stop-opacity="0.16"/>
  <stop offset="0.0001" stop-color="white" stop-opacity="0.12"/>
  <stop offset="1" stop-color="white" stop-opacity="0.04"/>
  </linearGradient>
  <linearGradient id="paint11_linear_222_185" x1="960" y1="169.794" x2="960" y2="214.14" gradientUnits="userSpaceOnUse">
  <stop stop-color="white" stop-opacity="0.16"/>
  <stop offset="0.0001" stop-color="white" stop-opacity="0.12"/>
  <stop offset="1" stop-color="white" stop-opacity="0.04"/>
  </linearGradient>
  <linearGradient id="paint12_linear_222_185" x1="960" y1="151.108" x2="960" y2="195.454" gradientUnits="userSpaceOnUse">
  <stop stop-color="white" stop-opacity="0.16"/>
  <stop offset="0.0001" stop-color="white" stop-opacity="0.12"/>
  <stop offset="1" stop-color="white" stop-opacity="0.04"/>
  </linearGradient>
  <linearGradient id="paint13_linear_222_185" x1="960" y1="132.422" x2="960" y2="176.768" gradientUnits="userSpaceOnUse">
  <stop stop-color="white" stop-opacity="0.16"/>
  <stop offset="0.0001" stop-color="white" stop-opacity="0.12"/>
  <stop offset="1" stop-color="white" stop-opacity="0.04"/>
  </linearGradient>
  <linearGradient id="paint14_linear_222_185" x1="960" y1="113.736" x2="960" y2="158.082" gradientUnits="userSpaceOnUse">
  <stop stop-color="white" stop-opacity="0.16"/>
  <stop offset="0.0001" stop-color="white" stop-opacity="0.12"/>
  <stop offset="1" stop-color="white" stop-opacity="0.04"/>
  </linearGradient>
  <linearGradient id="paint15_linear_222_185" x1="960" y1="95.0496" x2="960" y2="139.396" gradientUnits="userSpaceOnUse">
  <stop stop-color="white" stop-opacity="0.16"/>
  <stop offset="0.0001" stop-color="white" stop-opacity="0.12"/>
  <stop offset="1" stop-color="white" stop-opacity="0.04"/>
  </linearGradient>
  <linearGradient id="paint16_linear_222_185" x1="960" y1="76.3638" x2="960" y2="120.71" gradientUnits="userSpaceOnUse">
  <stop stop-color="white" stop-opacity="0.16"/>
  <stop offset="0.0001" stop-color="white" stop-opacity="0.12"/>
  <stop offset="1" stop-color="white" stop-opacity="0.04"/>
  </linearGradient>
  <linearGradient id="paint17_linear_222_185" x1="960" y1="57.6775" x2="960" y2="102.024" gradientUnits="userSpaceOnUse">
  <stop stop-color="white" stop-opacity="0.16"/>
  <stop offset="0.0001" stop-color="white" stop-opacity="0.12"/>
  <stop offset="1" stop-color="white" stop-opacity="0.04"/>
  </linearGradient>
  <linearGradient id="paint18_linear_222_185" x1="960" y1="38.9917" x2="960" y2="83.3381" gradientUnits="userSpaceOnUse">
  <stop stop-color="white" stop-opacity="0.16"/>
  <stop offset="0.0001" stop-color="white" stop-opacity="0.12"/>
  <stop offset="1" stop-color="white" stop-opacity="0.04"/>
  </linearGradient>
  <linearGradient id="paint19_linear_222_185" x1="960" y1="20.3057" x2="960" y2="64.6521" gradientUnits="userSpaceOnUse">
  <stop stop-color="white" stop-opacity="0.16"/>
  <stop offset="0.0001" stop-color="white" stop-opacity="0.12"/>
  <stop offset="1" stop-color="white" stop-opacity="0.04"/>
  </linearGradient>
  </defs>
  </svg>
  