<svg width="60" height="56" viewBox="0 0 60 56" fill="none" xmlns="http://www.w3.org/2000/svg">
  <g clip-path="url(#clip0_222_171)">
  <path d="M33.8751 29.2379C37.5772 29.2379 40.3809 28.6145 42.2864 27.3676C44.2191 26.1207 45.4985 24.6027 46.1246 22.8137C46.7779 21.0247 47.1999 18.0429 47.3904 13.8685C47.581 9.23329 48.6154 5.79076 50.4936 3.54092C52.3991 1.26396 55.516 0.125488 59.8441 0.125488V1.67056C58.2925 1.77899 57.2309 2.38889 56.6593 3.50026C56.1148 4.58452 55.8426 6.90213 55.8426 10.4531C55.8426 15.6576 55.2846 19.6829 54.1685 22.5291C53.0797 25.3482 50.8747 27.6387 47.5537 29.4006C44.2327 31.1625 39.6732 32.1112 33.8751 32.2468V45.1359C33.8751 48.3074 34.052 50.3675 34.4059 51.3162C34.787 52.2379 35.5628 52.9833 36.7333 53.5525C37.931 54.1218 39.7685 54.4064 42.2456 54.4064V55.9108H17.6648V54.4064C20.0875 54.3793 21.8841 54.1218 23.0546 53.6339C24.2523 53.1188 25.0418 52.387 25.4229 51.4382C25.8312 50.4624 26.0353 48.3616 26.0353 45.1359V32.2468C20.1828 32.1112 15.6368 31.1761 12.3975 29.4412C9.15816 27.7064 6.95324 25.443 5.78272 22.651C4.63943 19.832 4.06779 15.7524 4.06779 10.4124C4.06779 6.997 3.80918 4.7336 3.29198 3.62224C2.77478 2.48376 1.69954 1.8332 0.0662613 1.67056V0.125488C2.81561 0.179701 5.03414 0.613406 6.72186 1.4266C8.40958 2.2398 9.75703 3.67645 10.7642 5.73655C11.7986 7.79665 12.3839 10.5073 12.52 13.8685C12.7105 18.0158 13.1052 20.984 13.7041 22.773C14.3302 24.5621 15.6232 26.0936 17.5831 27.3676C19.5431 28.6145 22.3605 29.2379 26.0353 29.2379V11.5102C26.0353 8.33878 25.8448 6.29223 25.4637 5.37061C25.1098 4.42188 24.3476 3.67645 23.1771 3.13432C22.0066 2.59219 20.1692 2.30757 17.6648 2.28046V0.776046H42.2456V2.28046C39.7412 2.30757 37.9038 2.59219 36.7333 3.13432C35.5628 3.64934 34.787 4.38122 34.4059 5.32995C34.052 6.27868 33.8751 8.33878 33.8751 11.5102V29.2379Z" fill="white"/>
  </g>
  <defs>
  <clipPath id="clip0_222_171">
  <rect width="60" height="56" fill="white"/>
  </clipPath>
  </defs>
</svg>
  