<svg width="735" height="336" viewBox="0 0 735 336" fill="none" xmlns="http://www.w3.org/2000/svg">
  <g opacity="0.14">
    <path
      d="M910.645 86.1978C947.169 137.915 905.359 190.069 742.67 254.215C579.982 318.361 279.177 411.985 129.741 394.099C-19.6942 376.212 90.8625 261.081 25.3797 168.36C-40.103 75.6385 -297.487 -17.1323 -184.576 -50.9624C-71.6644 -84.7925 339.184 -22.6 567.355 5.97508C795.526 34.5501 874.121 34.4811 910.645 86.1978ZM910.645 86.1978C947.169 137.915 905.359 190.069 742.67 254.215"
      stroke="url(#paint0_linear_203_38)" stroke-width="2" />
    <path
      d="M885.39 89.906C920.254 139.272 880.344 189.056 725.051 250.286C569.758 311.517 282.626 400.885 139.982 383.811C-2.6606 366.738 102.871 256.84 40.3644 168.333C-22.1419 79.8266 -267.827 -8.72738 -160.048 -41.0197C-52.2686 -73.3121 339.905 -13.9465 557.704 13.3297C775.504 40.6059 850.526 40.54 885.39 89.906ZM885.39 89.906C920.254 139.272 880.344 189.056 725.051 250.286"
      stroke="url(#paint1_linear_203_38)" stroke-width="2" />
    <path
      d="M860.135 93.6139C893.339 140.629 855.329 188.043 707.431 246.357C559.533 304.672 286.073 389.784 150.223 373.524C14.3724 357.263 114.878 252.598 55.3486 168.306C-4.18117 84.0145 -238.167 -0.322577 -135.52 -31.0772C-32.8733 -61.8318 340.625 -5.29316 548.053 20.6842C755.481 46.6615 826.931 46.5987 860.135 93.6139ZM860.135 93.6139C893.339 140.629 855.329 188.043 707.431 246.357"
      stroke="url(#paint2_linear_203_38)" stroke-width="2" />
    <path
      d="M834.88 97.322C866.424 141.986 830.315 187.029 689.811 242.428C549.308 297.827 289.521 378.684 160.463 363.236C31.4055 347.789 126.886 248.357 70.3329 168.28C13.7796 88.2026 -208.507 8.08232 -110.992 -21.1346C-13.478 -50.3515 341.346 3.36027 538.402 28.0387C735.459 52.7172 803.337 52.6576 834.88 97.322ZM834.88 97.322C866.424 141.986 830.315 187.029 689.811 242.428"
      stroke="url(#paint3_linear_203_38)" stroke-width="2" />
    <path
      d="M809.625 101.03C839.509 143.344 805.3 186.016 672.192 238.499C539.083 290.982 292.97 367.584 170.704 352.949C48.4389 338.315 138.894 244.116 85.3175 168.253C31.7407 92.3907 -178.846 16.4873 -86.4644 -11.1919C5.91776 -38.8711 342.066 12.0137 528.752 35.3933C715.437 58.7729 779.742 58.7165 809.625 101.03ZM809.625 101.03C839.509 143.344 805.3 186.016 672.192 238.499"
      stroke="url(#paint4_linear_203_38)" stroke-width="2" />
    <path
      d="M784.371 104.738C812.594 144.701 780.286 185.002 654.573 234.57C528.859 284.137 296.419 356.483 180.946 342.662C65.4729 328.84 150.903 239.875 100.303 168.227C49.7023 96.5787 -149.186 24.8922 -61.9358 -1.24928C25.314 -27.3907 342.788 20.6672 519.102 42.7479C695.416 64.8286 756.148 64.7753 784.371 104.738ZM784.371 104.738C812.594 144.701 780.286 185.002 654.573 234.57"
      stroke="url(#paint5_linear_203_38)" stroke-width="2" />
    <path
      d="M759.116 108.446C785.679 146.058 755.272 183.989 636.953 230.641C518.634 277.292 299.867 345.383 191.186 332.374C82.5059 319.366 162.911 235.634 115.287 168.2C67.663 100.767 -119.526 33.297 -37.4081 8.69331C44.7093 -15.9104 343.508 29.3206 509.451 50.1024C675.393 70.8843 732.553 70.8341 759.116 108.446ZM759.116 108.446C785.679 146.058 755.272 183.989 636.953 230.641"
      stroke="url(#paint6_linear_203_38)" stroke-width="2" />
    <path
      d="M733.861 112.154C758.764 147.416 730.257 182.976 619.333 226.712C508.409 270.448 303.315 334.282 201.427 322.087C99.5389 309.891 174.918 231.393 130.271 168.174C85.6238 104.955 -89.8656 41.7019 -12.8805 18.6359C64.1046 -4.43004 344.228 37.974 499.8 57.457C655.371 76.94 708.958 76.8929 733.861 112.154ZM733.861 112.154C758.764 147.416 730.257 182.976 619.333 226.712"
      stroke="url(#paint7_linear_203_38)" stroke-width="2" />
    <path
      d="M708.606 115.862C731.849 148.773 705.242 181.962 601.714 222.783C498.185 263.603 306.763 323.182 211.668 311.799C116.572 300.417 186.927 227.151 145.256 168.147C103.585 109.143 -60.2051 50.1068 11.6476 28.5786C83.5004 7.05032 344.949 46.6274 490.149 64.8115C635.349 82.9956 685.364 82.9517 708.606 115.862ZM708.606 115.862C731.849 148.773 705.242 181.962 601.714 222.783"
      stroke="url(#paint8_linear_203_38)" stroke-width="2" />
    <path
      d="M683.351 119.57C704.934 150.13 680.228 180.949 584.094 218.854C487.96 256.758 310.211 312.081 221.908 301.512C133.605 290.943 198.934 222.91 160.24 168.121C121.546 113.331 -30.5451 58.5117 36.1753 38.5212C102.896 18.5307 345.67 55.2808 480.498 72.1661C615.326 89.0514 661.769 89.0106 683.351 119.57ZM683.351 119.57C704.934 150.13 680.228 180.949 584.094 218.854"
      stroke="url(#paint9_linear_203_38)" stroke-width="2" />
    <path
      d="M658.096 123.278C678.019 151.488 655.213 179.936 566.474 214.924C477.735 249.913 313.66 300.981 232.149 291.224C150.639 281.468 210.943 218.669 175.225 168.094C139.507 117.519 -0.884668 66.9166 60.7034 48.4638C122.291 30.011 346.39 63.9342 470.847 79.5206C595.304 95.107 638.174 95.0694 658.096 123.278ZM658.096 123.278C678.019 151.488 655.213 179.936 566.474 214.924"
      stroke="url(#paint10_linear_203_38)" stroke-width="2" />
    <path
      d="M632.841 126.987C651.103 152.845 630.198 178.922 548.854 210.995C467.51 243.068 317.107 289.88 242.39 280.937C167.672 271.994 222.95 214.428 190.209 168.067C157.467 121.707 28.7753 75.3215 85.231 58.4064C141.687 41.4914 347.111 72.5876 461.196 86.8752C575.282 101.163 614.579 101.128 632.841 126.987ZM632.841 126.987C651.103 152.845 630.198 178.922 548.854 210.995"
      stroke="url(#paint11_linear_203_38)" stroke-width="2" />
    <path
      d="M607.587 130.695C624.189 154.202 605.184 177.909 531.235 207.066C457.286 236.224 320.556 278.78 252.631 270.65C184.705 262.519 234.958 210.187 205.194 168.041C175.429 125.895 58.4358 83.7264 109.759 68.3491C161.083 52.9718 347.832 81.2411 451.546 94.2298C555.26 107.218 590.985 107.187 607.587 130.695ZM607.587 130.695C624.189 154.202 605.184 177.909 531.235 207.066"
      stroke="url(#paint12_linear_203_38)" stroke-width="2" />
    <path
      d="M582.332 134.403C597.273 155.56 580.169 176.896 513.615 203.137C447.061 229.379 324.004 267.679 262.871 260.362C201.738 253.045 246.966 205.946 220.178 168.014C193.389 130.083 88.0958 92.1313 134.287 78.2917C180.478 64.4521 348.552 89.8945 441.895 101.584C535.238 113.274 567.39 113.246 582.332 134.403ZM582.332 134.403C597.273 155.56 580.169 176.896 513.615 203.137"
      stroke="url(#paint13_linear_203_38)" stroke-width="2" />
    <path
      d="M557.077 138.111C570.358 156.917 555.155 175.882 495.995 199.208C436.836 222.534 327.452 256.579 273.112 250.075C218.772 243.571 258.974 201.705 235.162 167.988C211.35 134.271 117.756 100.536 158.815 88.2343C199.874 75.9325 349.273 98.5479 432.244 108.939C515.216 119.33 543.796 119.305 557.077 138.111ZM557.077 138.111C570.358 156.917 555.155 175.882 495.995 199.208"
      stroke="url(#paint14_linear_203_38)" stroke-width="2" />
    <path
      d="M531.822 141.819C543.444 158.274 530.14 174.869 478.376 195.279C426.612 215.689 330.901 245.479 283.353 239.787C235.805 234.096 270.983 197.463 250.147 167.961C229.312 138.459 147.417 108.941 183.343 98.1769C219.269 87.4128 349.994 107.201 422.594 116.293C495.194 125.385 520.201 125.364 531.822 141.819ZM531.822 141.819C543.444 158.274 530.14 174.869 478.376 195.279"
      stroke="url(#paint15_linear_203_38)" stroke-width="2" />
    <path
      d="M506.568 145.527C516.529 159.631 505.126 173.855 460.757 191.35C416.387 208.844 334.349 234.378 293.594 229.5C252.839 224.622 282.991 193.222 265.132 167.935C247.273 142.647 177.077 117.346 207.871 108.12C238.665 98.8931 350.715 115.855 412.943 123.648C475.172 131.441 496.607 131.422 506.568 145.527ZM506.568 145.527C516.529 159.631 505.126 173.855 460.757 191.35"
      stroke="url(#paint16_linear_203_38)" stroke-width="2" />
    <path
      d="M481.313 149.235C489.614 160.989 480.111 172.842 443.137 187.421C406.162 201.999 337.797 223.278 303.835 219.213C269.872 215.147 294.998 188.981 280.116 167.908C265.234 146.835 206.737 125.751 232.399 118.062C258.061 110.374 351.435 124.508 403.292 131.003C455.149 137.497 473.012 137.481 481.313 149.235ZM481.313 149.235C489.614 160.989 480.111 172.842 443.137 187.421"
      stroke="url(#paint17_linear_203_38)" stroke-width="2" />
    <path
      d="M456.058 152.943C462.699 162.346 455.097 171.829 425.517 183.492C395.937 195.155 341.246 212.177 314.076 208.925C286.905 205.673 307.007 184.74 295.101 167.881C283.195 151.023 236.398 134.156 256.927 128.005C277.456 121.854 352.156 133.162 393.642 138.357C435.127 143.553 449.417 143.54 456.058 152.943ZM456.058 152.943C462.699 162.346 455.097 171.829 425.517 183.492"
      stroke="url(#paint18_linear_203_38)" stroke-width="2" />
    <path
      d="M430.803 156.651C435.783 163.703 430.082 170.815 407.897 179.563C385.713 188.31 344.694 201.077 324.316 198.638C303.938 196.199 319.014 180.499 310.085 167.855C301.155 155.211 266.058 142.561 281.455 137.947C296.852 133.334 352.876 141.815 383.991 145.712C415.105 149.608 425.822 149.599 430.803 156.651ZM430.803 156.651C435.783 163.703 430.082 170.815 407.897 179.563"
      stroke="url(#paint19_linear_203_38)" stroke-width="2" />
    <path
      d="M405.548 160.359C408.869 165.061 405.068 169.802 390.278 175.634C375.488 181.465 348.142 189.976 334.557 188.35C320.972 186.724 331.023 176.258 325.07 167.828C319.117 159.399 295.718 150.966 305.983 147.89C316.247 144.815 353.597 150.469 374.34 153.066C395.083 155.664 402.228 155.658 405.548 160.359ZM405.548 160.359C408.869 165.061 405.068 169.802 390.278 175.634"
      stroke="url(#paint20_linear_203_38)" stroke-width="2" />
    <path
      d="M380.293 164.067C381.953 166.418 380.053 168.789 372.658 171.704C365.263 174.62 351.59 178.876 344.797 178.063C338.005 177.25 343.03 172.016 340.054 167.802C337.077 163.587 325.378 159.37 330.51 157.833C335.643 156.295 354.318 159.122 364.689 160.421C375.06 161.72 378.633 161.716 380.293 164.067ZM380.293 164.067C381.953 166.418 380.053 168.789 372.658 171.704"
      stroke="url(#paint21_linear_203_38)" stroke-width="2" />
  </g>
  <defs>
    <linearGradient id="paint0_linear_203_38" x1="355.038" y1="-60.7788" x2="355.038" y2="396.329"
      gradientUnits="userSpaceOnUse">
      <stop offset="0.45" stop-color="white" />
      <stop offset="1" stop-color="white" />
    </linearGradient>
    <linearGradient id="paint1_linear_203_38" x1="355.038" y1="-50.39" x2="355.038" y2="385.941"
      gradientUnits="userSpaceOnUse">
      <stop offset="0.45" stop-color="white" />
      <stop offset="1" stop-color="white" />
    </linearGradient>
    <linearGradient id="paint2_linear_203_38" x1="355.038" y1="-40.0012" x2="355.038" y2="375.552"
      gradientUnits="userSpaceOnUse">
      <stop offset="0.45" stop-color="white" />
      <stop offset="1" stop-color="white" />
    </linearGradient>
    <linearGradient id="paint3_linear_203_38" x1="355.038" y1="-29.6124" x2="355.038" y2="365.163"
      gradientUnits="userSpaceOnUse">
      <stop offset="0.45" stop-color="white" />
      <stop offset="1" stop-color="white" />
    </linearGradient>
    <linearGradient id="paint4_linear_203_38" x1="355.038" y1="-19.2235" x2="355.038" y2="354.774"
      gradientUnits="userSpaceOnUse">
      <stop offset="0.45" stop-color="white" />
      <stop offset="1" stop-color="white" />
    </linearGradient>
    <linearGradient id="paint5_linear_203_38" x1="355.039" y1="-8.83469" x2="355.039" y2="344.385"
      gradientUnits="userSpaceOnUse">
      <stop offset="0.45" stop-color="white" />
      <stop offset="1" stop-color="white" />
    </linearGradient>
    <linearGradient id="paint6_linear_203_38" x1="355.038" y1="1.55411" x2="355.038" y2="333.997"
      gradientUnits="userSpaceOnUse">
      <stop offset="0.45" stop-color="white" />
      <stop offset="1" stop-color="white" />
    </linearGradient>
    <linearGradient id="paint7_linear_203_38" x1="355.038" y1="11.9429" x2="355.038" y2="323.608"
      gradientUnits="userSpaceOnUse">
      <stop offset="0.45" stop-color="white" />
      <stop offset="1" stop-color="white" />
    </linearGradient>
    <linearGradient id="paint8_linear_203_38" x1="355.038" y1="22.3318" x2="355.038" y2="313.219"
      gradientUnits="userSpaceOnUse">
      <stop offset="0.45" stop-color="white" />
      <stop offset="1" stop-color="white" />
    </linearGradient>
    <linearGradient id="paint9_linear_203_38" x1="355.038" y1="32.7206" x2="355.038" y2="302.83"
      gradientUnits="userSpaceOnUse">
      <stop offset="0.45" stop-color="white" />
      <stop offset="1" stop-color="white" />
    </linearGradient>
    <linearGradient id="paint10_linear_203_38" x1="355.038" y1="43.1094" x2="355.038" y2="292.441"
      gradientUnits="userSpaceOnUse">
      <stop offset="0.45" stop-color="white" />
      <stop offset="1" stop-color="white" />
    </linearGradient>
    <linearGradient id="paint11_linear_203_38" x1="355.038" y1="53.4982" x2="355.038" y2="282.052"
      gradientUnits="userSpaceOnUse">
      <stop offset="0.45" stop-color="white" />
      <stop offset="1" stop-color="white" />
    </linearGradient>
    <linearGradient id="paint12_linear_203_38" x1="355.038" y1="63.8871" x2="355.038" y2="271.664"
      gradientUnits="userSpaceOnUse">
      <stop offset="0.45" stop-color="white" />
      <stop offset="1" stop-color="white" />
    </linearGradient>
    <linearGradient id="paint13_linear_203_38" x1="355.038" y1="74.2759" x2="355.038" y2="261.275"
      gradientUnits="userSpaceOnUse">
      <stop offset="0.45" stop-color="white" />
      <stop offset="1" stop-color="white" />
    </linearGradient>
    <linearGradient id="paint14_linear_203_38" x1="355.038" y1="84.6647" x2="355.038" y2="250.886"
      gradientUnits="userSpaceOnUse">
      <stop offset="0.45" stop-color="white" />
      <stop offset="1" stop-color="white" />
    </linearGradient>
    <linearGradient id="paint15_linear_203_38" x1="355.038" y1="95.0535" x2="355.038" y2="240.497"
      gradientUnits="userSpaceOnUse">
      <stop offset="0.45" stop-color="white" />
      <stop offset="1" stop-color="white" />
    </linearGradient>
    <linearGradient id="paint16_linear_203_38" x1="355.039" y1="105.442" x2="355.039" y2="230.108"
      gradientUnits="userSpaceOnUse">
      <stop offset="0.45" stop-color="white" />
      <stop offset="1" stop-color="white" />
    </linearGradient>
    <linearGradient id="paint17_linear_203_38" x1="355.038" y1="115.831" x2="355.038" y2="219.719"
      gradientUnits="userSpaceOnUse">
      <stop offset="0.45" stop-color="white" />
      <stop offset="1" stop-color="white" />
    </linearGradient>
    <linearGradient id="paint18_linear_203_38" x1="355.039" y1="126.22" x2="355.039" y2="209.331"
      gradientUnits="userSpaceOnUse">
      <stop offset="0.45" stop-color="white" />
      <stop offset="1" stop-color="white" />
    </linearGradient>
    <linearGradient id="paint19_linear_203_38" x1="355.038" y1="136.609" x2="355.038" y2="198.942"
      gradientUnits="userSpaceOnUse">
      <stop offset="0.45" stop-color="white" />
      <stop offset="1" stop-color="white" />
    </linearGradient>
    <linearGradient id="paint20_linear_203_38" x1="355.039" y1="146.998" x2="355.039" y2="188.553"
      gradientUnits="userSpaceOnUse">
      <stop offset="0.45" stop-color="white" />
      <stop offset="1" stop-color="white" />
    </linearGradient>
    <linearGradient id="paint21_linear_203_38" x1="355.038" y1="157.386" x2="355.038" y2="178.164"
      gradientUnits="userSpaceOnUse">
      <stop offset="0.45" stop-color="white" />
      <stop offset="1" stop-color="white" />
    </linearGradient>
  </defs>
</svg>
  