<svg id="Layer_1" data-name="Layer 1" xmlns="http://www.w3.org/2000/svg" viewBox="0 0 223.75 209.26">
  <defs>
    <style>
      .cls-1{fill:none;}.cls-1,.cls-2{stroke:white;stroke-miterlimit:10;}.cls-2{fill:white;}</style>
  </defs>
  <path class="cls-1"
    d="M20.11,137.22C27.87,210.87,98,208.75,98,208.75c76.23-4.23,77.88-73.88,77.88-73.88V73.69C165.75-2.54,96.81.52,96.81.52S61.05.75,39.64,27.11s-20.24,52-20.24,52S5.05,82.16.81,98.63c-1.94,14.77,5.36,23.3,16.47,27.77,0,0,.94,8.47,2.83,10.82s16,28,44.23,9.65L51.4,144.05l35.06-35.77L66.69,138.63l22.12.48L69.05,186.4l3.76-38.35-8.47-1.18" />
  <path class="cls-1"
    d="M82.46,154.31c35.06,12.61,44.94-23.44,44.94-23.44s23.77.82,31.06-27.35c0,0,1.41-23.36-18.59-30.77,0,0,3.3-35.76-35.76-29.88,0,0-18.12-20.94-39.77,1.65C59.11,40.69,34,45.93,42.69,68.75c0,0-7.76.94-14.35,10.36a25.23,25.23,0,0,0-8.94,0" />
  <path class="cls-1"
    d="M88.94,80.41s-6.14-.13-6.54,3.93,6.54,4.32,6.54,4.32,6.43.09,7-4.12C95.64,80.41,88.94,80.41,88.94,80.41Z" />
  <path class="cls-1"
    d="M123.61,84.42s.39,4.1,6.83,4.19,6.8-4.19,6.8-4.19-.9-4.33-6.82-3.93C125.93,80.38,123.89,82.22,123.61,84.42Z" />
  <path class="cls-2"
    d="M114.14,91.05c2.91.23,3,3.41,3,3.41-1.5,4.62-6.29,4.41-6.55,4.38s-5.06-.12-5.74-3.56S106,91.52,106,91.52C109.31,90.49,111.22,90.81,114.14,91.05Zm-3.37-5s-4.46.16-5.38-.48-4.31-.16-4.86,1.87S99.94,98,110.77,99.61c0,0,9.44-.2,10.08-9,0,0,.84-4.81-1.83-5.14a13.86,13.86,0,0,0-5.38.55C113.5,86,110.77,86.08,110.77,86.08Z" />
  <path class="cls-1" d="M88.75,68.65s-2.16-5,7.46-6.53" />
  <path class="cls-1" d="M129,65.63s-4.29-5.22-8.61-3.89" />
  <path class="cls-1"
    d="M97.64,68.79s-5.89.2-7.71,5.2.53,6.54.53,6.54,10.29-1.25,13.53.69c0,0,1.65.94,2.76-2.7s-3.06-7.93-4.35-8.77A10.6,10.6,0,0,0,97.64,68.79Z" />
  <path class="cls-2"
    d="M99,69.32s-4.19,3.09-4,3.55,2.63.55,2.63.55-5,5.78-4,5.43c0,0,0,.75,1.08.84s7.6-.23,9,1.37,3.24-2.87,3.25-4-2.77-7.61-5.11-7.37A3.7,3.7,0,0,0,99,69.32Z" />
  <path class="cls-1"
    d="M121.13,69s-5.89.2-7.71,5.2.52,6.55.52,6.55,10.3-1.26,13.53.69c0,0,1.65.94,2.77-2.71s-3.06-7.92-4.35-8.77A10.63,10.63,0,0,0,121.13,69Z" />
  <path class="cls-2"
    d="M122.47,69.52s-4.19,3.09-4,3.55,2.62.55,2.62.55-5,5.78-4,5.43c0,0,0,.75,1.08.84s7.61-.22,9,1.38,3.24-2.88,3.25-4-2.77-7.61-5.11-7.37A3.74,3.74,0,0,0,122.47,69.52Z" />
</svg>